<svg width="30" height="31" viewBox="0 0 30 31" fill="none" xmlns="http://www.w3.org/2000/svg">
<rect x="-0.000244141" y="0.5" width="30" height="30" rx="8" fill="#E03137"/>
<path fill-rule="evenodd" clip-rule="evenodd" d="M13.6665 10C13.6223 10 13.5799 10.0176 13.5487 10.0488C13.5174 10.0801 13.4998 10.1225 13.4998 10.1667V11.6667H16.4998V10.1667C16.4998 10.1225 16.4823 10.0801 16.451 10.0488C16.4198 10.0176 16.3774 10 16.3332 10H13.6665ZM10.8766 12.6667L11.4981 20.1251C11.4993 20.139 11.4998 20.1528 11.4998 20.1667C11.4998 20.3877 11.5876 20.5996 11.7439 20.7559C11.9002 20.9122 12.1122 21 12.3332 21H17.6665C17.8875 21 18.0995 20.9122 18.2558 20.7559C18.412 20.5996 18.4998 20.3877 18.4998 20.1667C18.4998 20.1528 18.5004 20.139 18.5016 20.1251L19.1231 12.6667H10.8766ZM20.1266 12.6667L19.4997 20.1891C19.4939 20.6672 19.3014 21.1245 18.9629 21.463C18.619 21.8068 18.1527 22 17.6665 22H12.3332C11.8469 22 11.3806 21.8068 11.0368 21.463C10.6983 21.1245 10.5058 20.6672 10.5 20.1891L9.8731 12.6667H9.6665C9.39036 12.6667 9.1665 12.4428 9.1665 12.1667C9.1665 11.8905 9.39036 11.6667 9.6665 11.6667H12.4998V10.1667C12.4998 9.85725 12.6228 9.5605 12.8415 9.34171C13.0603 9.12292 13.3571 9 13.6665 9H16.3332C16.6426 9 16.9393 9.12292 17.1581 9.34171C17.3769 9.5605 17.4998 9.85725 17.4998 10.1667V11.6667H20.3332C20.6093 11.6667 20.8332 11.8905 20.8332 12.1667C20.8332 12.4428 20.6093 12.6667 20.3332 12.6667H20.1266ZM13.6665 14.3333C13.9426 14.3333 14.1665 14.5572 14.1665 14.8333V18.8333C14.1665 19.1095 13.9426 19.3333 13.6665 19.3333C13.3904 19.3333 13.1665 19.1095 13.1665 18.8333V14.8333C13.1665 14.5572 13.3904 14.3333 13.6665 14.3333ZM16.3332 14.3333C16.6093 14.3333 16.8332 14.5572 16.8332 14.8333V18.8333C16.8332 19.1095 16.6093 19.3333 16.3332 19.3333C16.057 19.3333 15.8332 19.1095 15.8332 18.8333V14.8333C15.8332 14.5572 16.057 14.3333 16.3332 14.3333Z" fill="white"/>
</svg>
