<svg width="30" height="31" viewBox="0 0 30 31" fill="none" xmlns="http://www.w3.org/2000/svg">
<rect x="-0.000244141" y="0.5" width="30" height="30" rx="8" fill="#2F78EE"/>
<path fill-rule="evenodd" clip-rule="evenodd" d="M17.1801 9.51774C17.9579 9.41828 18.7449 9.73636 19.5445 10.4887L19.5454 10.4896C20.3477 11.2483 20.7129 12.018 20.6581 12.8019C20.6052 13.5594 20.166 14.2005 19.6653 14.7296M19.6653 14.7296L14.1947 20.52C14.0405 20.688 13.8328 20.8302 13.6359 20.9355C13.4365 21.0421 13.2059 21.1333 12.9894 21.1718L12.986 21.1724L10.8401 21.5389C10.3198 21.6287 9.82076 21.4986 9.4653 21.1615C9.11033 20.8249 8.95347 20.334 9.01158 19.811L9.01175 19.8095L9.25949 17.6401C9.28826 17.4243 9.3684 17.1908 9.46287 16.9882C9.55701 16.7864 9.68544 16.5723 9.83743 16.4105L9.83841 16.4095L15.3117 10.6162C15.8128 10.0869 16.4285 9.61386 17.1801 9.51774M16.0383 11.3033L10.5663 17.0952C10.5116 17.1535 10.4366 17.2663 10.3692 17.4109C10.303 17.5528 10.2632 17.684 10.2513 17.7684L10.0055 19.9214L10.0054 19.9221C9.97705 20.1787 10.0568 20.3443 10.1534 20.4359C10.2496 20.5271 10.4173 20.5971 10.6702 20.5535L10.671 20.5533L12.8157 20.187C12.8993 20.1719 13.0279 20.1266 13.1644 20.0536C13.3028 19.9796 13.4069 19.8998 13.459 19.8427L13.465 19.8361L18.9384 14.0428C19.3842 13.5719 19.6319 13.1428 19.6606 12.7322C19.6874 12.3479 19.5294 11.851 18.8588 11.2167C18.192 10.5893 17.689 10.4608 17.3069 10.5097C16.8987 10.5619 16.4838 10.8327 16.0383 11.3033Z" fill="white"/>
<path fill-rule="evenodd" clip-rule="evenodd" d="M14.6849 11.4322C14.9577 11.3897 15.2134 11.5764 15.2559 11.8492C15.5073 13.463 16.817 14.6981 18.4453 14.8621C18.72 14.8897 18.9203 15.1349 18.8927 15.4096C18.865 15.6844 18.6198 15.8847 18.3451 15.857C16.2667 15.6477 14.5897 14.0694 14.2678 12.0032C14.2253 11.7303 14.412 11.4747 14.6849 11.4322Z" fill="white"/>
</svg>
