<svg width="30" height="31" viewBox="0 0 30 31" fill="none" xmlns="http://www.w3.org/2000/svg">
<rect x="-0.000244141" y="0.5" width="30" height="30" rx="8" fill="#27A376"/>
<g clip-path="url(#clip0_526_598)">
<path fill-rule="evenodd" clip-rule="evenodd" d="M14.9997 13.6133C13.9558 13.6133 13.113 14.4561 13.113 15.5C13.113 16.5438 13.9558 17.3866 14.9997 17.3866C16.0435 17.3866 16.8863 16.5438 16.8863 15.5C16.8863 14.4561 16.0435 13.6133 14.9997 13.6133ZM12.113 15.5C12.113 13.9038 13.4035 12.6133 14.9997 12.6133C16.5958 12.6133 17.8863 13.9038 17.8863 15.5C17.8863 17.0961 16.5958 18.3866 14.9997 18.3866C13.4035 18.3866 12.113 17.0961 12.113 15.5Z" fill="white"/>
<path fill-rule="evenodd" clip-rule="evenodd" d="M8.50465 13.498C10.0986 10.9924 12.4343 9.47998 14.9997 9.47998C17.5651 9.47998 19.9009 10.9925 21.4949 13.4983C21.8582 14.0678 22.023 14.7974 22.023 15.4966C22.023 16.1959 21.8582 16.9254 21.4949 17.495C19.9009 20.0008 17.5651 21.5133 14.9997 21.5133C12.4342 21.5133 10.0984 20.0008 8.50444 17.495C8.14112 16.9254 7.97632 16.1959 7.97632 15.4966C7.97632 14.7973 8.14118 14.0676 8.50465 13.498ZM14.9997 10.48C12.8584 10.48 10.8076 11.7408 9.3482 14.035L9.34778 14.0357C9.11139 14.406 8.97632 14.9361 8.97632 15.4966C8.97632 16.0571 9.11139 16.5873 9.34778 16.9576L9.3482 16.9583C10.8076 19.2525 12.8584 20.5133 14.9997 20.5133C17.1409 20.5133 19.1917 19.2525 20.6511 16.9583L20.6515 16.9576C20.8879 16.5873 21.023 16.0571 21.023 15.4966C21.023 14.9361 20.8879 14.406 20.6515 14.0357L20.6511 14.035C19.1917 11.7408 17.1409 10.48 14.9997 10.48Z" fill="white"/>
</g>
<defs>
<clipPath id="clip0_526_598">
<rect width="16" height="16" fill="white" transform="translate(6.99976 7.5)"/>
</clipPath>
</defs>
</svg>
